<?xml version="1.0" encoding="UTF-8"?>
<svg id="Layer_1" xmlns="http://www.w3.org/2000/svg" xmlns:xlink="http://www.w3.org/1999/xlink" version="1.1" viewBox="0 0 500 500">
  <!-- Generator: Adobe Illustrator 29.6.1, SVG Export Plug-In . SVG Version: 2.1.1 Build 9)  -->
  <defs>
    <style>
      .st0 {
        mask: url(#mask);
      }

      .st1 {
        fill: #fff;
      }
    </style>
    <mask id="mask" x="0" y="0" width="500" height="500" maskUnits="userSpaceOnUse">
      <g id="dots-mask">
        <rect class="st1" width="500" height="500"/>
        <circle cx="140" cy="250" r="70"/>
        <circle cx="250" cy="250" r="70"/>
        <circle cx="360" cy="250" r="70"/>
      </g>
    </mask>
  </defs>
  <g class="st0">
    <circle cx="250" cy="250" r="250"/>
  </g>
  <path d="M195.17,294.16c-10.09-12.71-15.14-28.61-15.14-44.5s5.05-31.78,15.14-44.5c10.09,12.71,15.14,28.61,15.14,44.5s-5.05,31.78-15.14,44.5Z"/>
  <path d="M304.86,294.5c-10.09-12.71-15.14-28.61-15.14-44.5s5.05-31.78,15.14-44.5c10.09,12.71,15.14,28.61,15.14,44.5s-5.05,31.78-15.14,44.5Z"/>
</svg>